<?xml version="1.0" encoding="UTF-8"?><svg id="Layer_1" xmlns="http://www.w3.org/2000/svg" viewBox="0 0 1197 1197"><defs><style>.cls-1{fill:#5c33ae;}</style></defs><path class="cls-1" d="M598.5,0C267.96,0,0,267.96,0,598.5s267.96,598.5,598.5,598.5,598.5-267.96,598.5-598.5S929.04,0,598.5,0Zm43.93,862.06c0,75.81-61.46,137.27-137.27,137.27s-137.27-61.46-137.27-137.27V411.81c0-75.81,61.46-137.27,137.27-137.27s137.27,61.46,137.27,137.27v450.25Zm189.43-263.56c-89.46,0-161.98-72.52-161.98-161.98s72.52-161.98,161.98-161.98,161.98,72.52,161.98,161.98-72.52,161.98-161.98,161.98Z"/></svg>