<?xml version="1.0" encoding="UTF-8"?><svg id="Layer_1" xmlns="http://www.w3.org/2000/svg" viewBox="0 0 1229 1197"><defs><style>.cls-1{fill:#fff;}.cls-2{fill:#d60f0f;}</style></defs><path class="cls-1" d="M278.97,1070.05h-64.51l-49.44-76.68v76.68h-51.82v-199.36h80.64c11.1,0,20.8,1.63,29.08,4.89,8.28,3.26,15.11,7.71,20.49,13.35,5.38,5.64,9.43,12.16,12.16,19.57,2.73,7.4,4.1,15.34,4.1,23.8,0,15.16-3.66,27.46-10.97,36.88-7.32,9.43-18.11,15.82-32.39,19.17l62.66,81.7Zm-113.96-110.26h9.78c10.22,0,18.07-2.12,23.53-6.35,5.46-4.23,8.2-10.31,8.2-18.24s-2.74-14.01-8.2-18.24c-5.47-4.23-13.31-6.35-23.53-6.35h-9.78v49.18Z"/><path class="cls-1" d="M352.48,870.69v199.36h-51.82v-199.36h51.82Z"/><path class="cls-1" d="M394.25,870.69h77.21c18.33,0,32.26,4.41,41.78,13.22,9.52,8.82,14.28,21.51,14.28,38.07,0,10.05-1.81,18.38-5.42,24.99-3.61,6.61-9.12,12.21-16.52,16.79,7.4,1.41,13.7,3.57,18.9,6.48,5.2,2.91,9.43,6.48,12.69,10.71,3.26,4.23,5.59,8.99,7.01,14.28,1.41,5.29,2.12,10.93,2.12,16.92,0,9.35-1.63,17.63-4.89,24.85-3.26,7.23-7.85,13.31-13.75,18.24-5.91,4.94-13.09,8.64-21.55,11.11-8.46,2.47-17.98,3.7-28.56,3.7h-83.29v-199.36Zm51.82,78.26h9.52c16.22,0,24.33-6.43,24.33-19.3s-8.11-19.3-24.33-19.3h-9.52v38.6Zm0,80.91h11.37c13.04,0,22.38-1.67,28.03-5.02,5.64-3.35,8.46-8.72,8.46-16.13s-2.82-12.78-8.46-16.13c-5.64-3.35-14.98-5.02-28.03-5.02h-11.37v42.3Z"/><path class="cls-1" d="M629.04,987.82v82.23h-51.82v-199.36h51.82v76.94m74.83,0v-76.94h51.82v199.36h-51.82v-82.23"/><path class="cls-1" d="M845.58,974.34l-72.71-103.65h61.87l37.02,54.47,36.75-54.47h61.87l-72.97,103.65v95.71h-51.82v-95.71Z"/><path class="cls-1" d="M1090.41,1035.41h-74.03l-11.9,34.64h-55.26l75.88-199.36h56.58l75.88,199.36h-55.26l-11.9-34.64Zm-13.75-39.4l-23.27-66.37-23.27,66.37h46.53Z"/><path class="cls-1" d="M625.86,118.81c-185.98,0-336.75,150.77-336.75,336.75s150.77,336.75,336.75,336.75,336.75-150.77,336.75-336.75S811.85,118.81,625.86,118.81Zm24.72,485.05c0,42.66-34.58,77.24-77.24,77.24s-77.24-34.58-77.24-77.24v-253.34c0-42.66,34.58-77.24,77.24-77.24s77.24,34.58,77.24,77.24v253.34Zm106.59-148.3c-50.34,0-91.14-40.8-91.14-91.14s40.8-91.14,91.14-91.14,91.14,40.8,91.14,91.14-40.8,91.14-91.14,91.14Z"/><circle class="cls-2" cx="667.38" cy="968.83" r="30.59"/></svg>