<?xml version="1.0" encoding="UTF-8"?><svg id="Layer_1" xmlns="http://www.w3.org/2000/svg" viewBox="0 0 1442.51 1313.86"><defs><style>.cls-1{fill:#5c33ae;}</style></defs><path class="cls-1" d="M228.98,1313.86h-89.11l-68.29-105.91v105.91H0v-275.36H111.38c15.34,0,28.72,2.26,40.17,6.76,11.44,4.51,20.87,10.65,28.3,18.44,7.42,7.79,13.02,16.8,16.8,27.02,3.77,10.23,5.66,21.18,5.66,32.87,0,20.94-5.06,37.92-15.16,50.94-10.11,13.03-25.02,21.85-44.74,26.48l86.55,112.85Zm-157.4-152.29h13.51c14.12,0,24.95-2.92,32.5-8.76,7.54-5.84,11.32-14.24,11.32-25.2s-3.78-19.36-11.32-25.2c-7.55-5.84-18.39-8.76-32.5-8.76h-13.51v67.93Z"/><path class="cls-1" d="M330.5,1038.51v275.36h-71.58v-275.36h71.58Z"/><path class="cls-1" d="M388.2,1038.51h106.64c25.32,0,44.55,6.09,57.7,18.26,13.15,12.18,19.72,29.71,19.72,52.59,0,13.88-2.5,25.38-7.49,34.51-4.99,9.13-12.6,16.86-22.82,23.19,10.23,1.95,18.93,4.93,26.11,8.95,7.18,4.02,13.02,8.95,17.53,14.79,4.5,5.84,7.73,12.42,9.68,19.72,1.95,7.3,2.92,15.1,2.92,23.37,0,12.91-2.25,24.35-6.76,34.33-4.51,9.99-10.84,18.38-18.99,25.2-8.16,6.82-18.08,11.93-29.76,15.34-11.69,3.41-24.83,5.11-39.44,5.11h-115.04v-275.36Zm71.58,108.1h13.15c22.4,0,33.6-8.88,33.6-26.66s-11.2-26.66-33.6-26.66h-13.15v53.32Zm0,111.75h15.7c18.01,0,30.92-2.31,38.71-6.94,7.79-4.62,11.69-12.05,11.69-22.28s-3.9-17.65-11.69-22.28c-7.79-4.62-20.7-6.94-38.71-6.94h-15.7v58.43Z"/><path class="cls-1" d="M712.49,1200.29v113.58h-71.58v-275.36h71.58v106.27m103.35,0v-106.27h71.58v275.36h-71.58v-113.58"/><path class="cls-1" d="M1011.58,1181.66l-100.43-143.16h85.45l51.13,75.23,50.76-75.23h85.46l-100.79,143.16v132.2h-71.58v-132.2Z"/><path class="cls-1" d="M1349.75,1266.02h-102.25l-16.43,47.84h-76.33l104.81-275.36h78.15l104.81,275.36h-76.33l-16.43-47.84Zm-18.99-54.41l-32.14-91.66-32.14,91.66h64.27Z"/><path class="cls-1" d="M708.11,0C451.22,0,242.98,208.25,242.98,465.13s208.25,465.13,465.13,465.13,465.13-208.25,465.13-465.13S964.99,0,708.11,0Zm34.14,669.96c0,58.92-47.76,106.68-106.68,106.68s-106.68-47.76-106.68-106.68V320.04c0-58.92,47.76-106.68,106.68-106.68s106.68,47.76,106.68,106.68v349.92Zm147.22-204.83c-69.52,0-125.88-56.36-125.88-125.88s56.36-125.88,125.88-125.88,125.88,56.36,125.88,125.88-56.36,125.88-125.88,125.88Z"/><circle class="cls-1" cx="765.44" cy="1174.06" r="42.26"/></svg>