<svg id="Layer_1" xmlns="http://www.w3.org/2000/svg" viewBox="0 0 1229 1197">
  <defs>
    <style>
      .cls-1 {
        fill: #0d0dd7;
      }
    </style>
  </defs>
  <path class="cls-1"
    d="M614.5,0C283.96,0,16,267.96,16,598.5s267.96,598.5,598.5,598.5,598.5-267.96,598.5-598.5S945.04,0,614.5,0Zm43.93,862.06c0,75.81-61.46,137.27-137.27,137.27s-137.27-61.46-137.27-137.27V411.81c0-75.81,61.46-137.27,137.27-137.27s137.27,61.46,137.27,137.27v450.25Zm189.43-263.56c-89.46,0-161.98-72.52-161.98-161.98s72.52-161.98,161.98-161.98,161.98,72.52,161.98,161.98-72.52,161.98-161.98,161.98Z" />
</svg>
