<?xml version="1.0" encoding="UTF-8"?>
<svg id="Layer_1" xmlns="http://www.w3.org/2000/svg" viewBox="0 0 1229 293">
  <defs>
    <style>
      .cls-1 {
        fill: #d60f0f;
      }

      .cls-2 {
        fill: #0d0dd7;
      }
    </style>
  </defs>
  <path class="cls-2"
    d="M471.16,246.09h-55.5l-42.53-65.96v65.96h-44.58V74.58h69.38c9.55,0,17.89,1.4,25.02,4.21,7.13,2.81,13,6.64,17.63,11.49,4.62,4.86,8.11,10.46,10.46,16.83,2.35,6.37,3.53,13.19,3.53,20.47,0,13.04-3.15,23.62-9.44,31.73-6.29,8.11-15.58,13.61-27.86,16.49l53.91,70.29Zm-98.04-94.85h8.42c8.79,0,15.54-1.82,20.24-5.46,4.7-3.64,7.05-8.87,7.05-15.69s-2.35-12.06-7.05-15.7c-4.7-3.64-11.45-5.46-20.24-5.46h-8.42v42.31Z" />
  <path class="cls-2" d="M534.4,74.58V246.09h-44.58V74.58h44.58Z" />
  <path class="cls-2"
    d="M570.33,74.58h66.42c15.77,0,27.75,3.79,35.94,11.37,8.19,7.58,12.28,18.5,12.28,32.75,0,8.64-1.56,15.81-4.66,21.5-3.11,5.69-7.85,10.5-14.22,14.44,6.37,1.21,11.79,3.07,16.26,5.57,4.47,2.5,8.11,5.57,10.92,9.21,2.8,3.64,4.81,7.73,6.03,12.28,1.21,4.55,1.82,9.4,1.82,14.56,0,8.04-1.4,15.17-4.21,21.38-2.81,6.22-6.75,11.45-11.83,15.69-5.08,4.25-11.26,7.43-18.54,9.55-7.28,2.12-15.47,3.18-24.57,3.18h-71.65V74.58Zm44.58,67.33h8.19c13.95,0,20.93-5.53,20.93-16.61s-6.98-16.6-20.93-16.6h-8.19v33.21Zm0,69.6h9.78c11.22,0,19.26-1.44,24.11-4.32,4.85-2.88,7.28-7.51,7.28-13.87s-2.43-10.99-7.28-13.88c-4.86-2.88-12.89-4.32-24.11-4.32h-9.78v36.39Z" />
  <path class="cls-2" d="M772.32,175.35v70.74h-44.58V74.58h44.58v66.19m64.37,0V74.58h44.58V246.09h-44.58v-70.74" />
  <path class="cls-2"
    d="M958.6,163.75l-62.55-89.17h53.23l31.84,46.86,31.62-46.86h53.23l-62.78,89.17v82.34h-44.58v-82.34Z" />
  <path class="cls-2"
    d="M1169.23,216.29h-63.69l-10.24,29.8h-47.54l65.28-171.51h48.68l65.28,171.51h-47.54l-10.24-29.8Zm-11.83-33.89l-20.02-57.09-20.02,57.09h40.03Z" />
  <path class="cls-2"
    d="M148.49,0C67.58,0,1.99,65.59,1.99,146.5s65.59,146.5,146.5,146.5,146.5-65.59,146.5-146.5S229.4,0,148.49,0Zm10.75,211.01c0,18.56-15.04,33.6-33.6,33.6s-33.6-15.04-33.6-33.6V100.8c0-18.56,15.04-33.6,33.6-33.6s33.6,15.04,33.6,33.6v110.21Zm46.37-64.51c-21.9,0-39.65-17.75-39.65-39.65s17.75-39.65,39.65-39.65,39.65,17.75,39.65,39.65-17.75,39.65-39.65,39.65Z" />
  <circle class="cls-1" cx="805.3" cy="159.01" r="26.32" />
</svg>
