<?xml version="1.0" encoding="UTF-8"?><svg id="Layer_1" xmlns="http://www.w3.org/2000/svg" viewBox="0 0 2225.38 597.61"><defs><style>.cls-1{fill:#fff;}</style></defs><path class="cls-1" d="M744.62,134.89V501.56h-95.32V134.89h95.32Z"/><path class="cls-1" d="M821.45,134.89h142c33.72,0,59.33,8.11,76.83,24.32,17.51,16.22,26.26,39.56,26.26,70.03,0,18.48-3.33,33.8-9.97,45.96-6.65,12.16-16.78,22.45-30.39,30.88,13.62,2.6,25.2,6.56,34.77,11.91,9.56,5.35,17.34,11.91,23.34,19.69,6,7.78,10.29,16.54,12.89,26.26,2.59,9.73,3.89,20.11,3.89,31.12,0,17.19-3,32.42-9,45.71-6,13.3-14.43,24.48-25.29,33.55-10.86,9.08-24.07,15.89-39.63,20.43-15.56,4.54-33.07,6.81-52.52,6.81h-153.18V134.89Zm95.32,143.95h17.51c29.82,0,44.74-11.83,44.74-35.5s-14.92-35.5-44.74-35.5h-17.51v71Zm0,148.81h20.91c23.99,0,41.17-3.08,51.55-9.24,10.37-6.15,15.56-16.05,15.56-29.66s-5.19-23.5-15.56-29.66c-10.38-6.16-27.56-9.24-51.55-9.24h-20.91v77.81Z"/><path class="cls-1" d="M1253.28,350.33v151.24h-95.32V134.89h95.32v141.51m137.62,0V134.89h95.32V501.56h-95.32v-151.24"/><path class="cls-1" d="M1651.55,325.52l-133.73-190.63h113.79l68.08,100.18,67.6-100.18h113.79l-134.22,190.63v176.04h-95.32v-176.04Z"/><path class="cls-1" d="M2101.86,437.86h-136.16l-21.88,63.71h-101.64l139.57-366.67h104.07l139.57,366.67h-101.64l-21.88-63.71Zm-25.29-72.46l-42.79-122.06-42.79,122.06h85.59Z"/><path class="cls-1" d="M298.8,0C133.78,0,0,133.78,0,298.8s133.78,298.8,298.8,298.8,298.8-133.78,298.8-298.8S463.83,0,298.8,0Zm21.93,430.39c0,37.85-30.68,68.53-68.53,68.53s-68.53-30.68-68.53-68.53V205.6c0-37.85,30.68-68.53,68.53-68.53s68.53,30.68,68.53,68.53v224.79Zm94.58-131.58c-44.66,0-80.87-36.21-80.87-80.87s36.21-80.87,80.87-80.87,80.87,36.21,80.87,80.87-36.21,80.87-80.87,80.87Z"/><circle class="cls-1" cx="1323.79" cy="315.39" r="56.27"/></svg>